<?xml version="1.0" encoding="UTF-8" standalone="no"?>
<!DOCTYPE svg PUBLIC "-//W3C//DTD SVG 1.1//EN"
 "http://www.w3.org/Graphics/SVG/1.1/DTD/svg11.dtd">
<!-- Generated by graphviz version 2.43.0 (0)
 -->
<!-- Title: %3 Pages: 1 -->
<svg width="278pt" height="249pt"
 viewBox="0.00 0.00 278.12 248.91" xmlns="http://www.w3.org/2000/svg" xmlns:xlink="http://www.w3.org/1999/xlink">
<g id="graph0" class="graph" transform="scale(1 1) rotate(0) translate(4 244.91)">
<title>%3</title>
<polygon fill="white" stroke="transparent" points="-4,4 -4,-244.91 274.12,-244.91 274.12,4 -4,4"/>
<!-- B -->
<g id="node1" class="node">
<title>B</title>
<polygon fill="aqua" stroke="black" points="141.11,-133.93 101.81,-133.93 89.67,-171.31 77.52,-133.93 38.22,-133.93 70.02,-110.83 57.87,-73.45 89.67,-96.55 121.46,-73.45 109.32,-110.83 141.11,-133.93"/>
<text text-anchor="middle" x="89.67" y="-118.68" font-family="Times,serif" font-size="14.00">B</text>
</g>
<!-- G -->
<g id="node2" class="node">
<title>G</title>
<polygon fill="aqua" stroke="black" points="195.9,-78.32 156.6,-78.32 144.46,-115.7 132.31,-78.32 93.01,-78.32 124.81,-55.22 112.66,-17.84 144.46,-40.94 176.25,-17.84 164.11,-55.22 195.9,-78.32"/>
<text text-anchor="middle" x="144.46" y="-63.07" font-family="Times,serif" font-size="14.00">G</text>
</g>
<!-- B&#45;&#45;G -->
<g id="edge1" class="edge">
<title>B&#45;&#45;G</title>
<path fill="none" stroke="red" d="M113.54,-98.15C120.11,-91.48 126.96,-84.53 132.54,-78.87"/>
<text text-anchor="middle" x="116.54" y="-72.51" font-family="Times,serif" font-size="20.00">4</text>
</g>
<!-- H -->
<g id="node3" class="node">
<title>H</title>
<polygon fill="aqua" stroke="black" points="124.48,-60.27 85.18,-60.27 73.04,-97.65 60.89,-60.27 21.59,-60.27 53.39,-37.16 41.24,0.22 73.04,-22.89 104.83,0.22 92.69,-37.16 124.48,-60.27"/>
<text text-anchor="middle" x="73.04" y="-45.01" font-family="Times,serif" font-size="14.00">H</text>
</g>
<!-- B&#45;&#45;H -->
<g id="edge2" class="edge">
<title>B&#45;&#45;H</title>
<path fill="none" stroke="red" d="M82.71,-91.57C81.68,-86.99 80.62,-82.29 79.59,-77.76"/>
<text text-anchor="middle" x="74.65" y="-90.66" font-family="Times,serif" font-size="20.00">2</text>
</g>
<!-- D -->
<g id="node4" class="node">
<title>D</title>
<polygon fill="aqua" stroke="black" points="213.66,-145.38 174.36,-145.38 162.21,-182.76 150.07,-145.38 110.77,-145.38 142.56,-122.28 130.42,-84.9 162.21,-108 194.01,-84.9 181.86,-122.28 213.66,-145.38"/>
<text text-anchor="middle" x="162.21" y="-130.13" font-family="Times,serif" font-size="14.00">D</text>
</g>
<!-- B&#45;&#45;D -->
<g id="edge3" class="edge">
<title>B&#45;&#45;D</title>
<path fill="none" stroke="red" d="M135.2,-129.57C135.31,-129.58 135.43,-129.6 135.54,-129.62"/>
<text text-anchor="middle" x="128.87" y="-135.59" font-family="Times,serif" font-size="20.00">9</text>
</g>
<!-- C -->
<g id="node5" class="node">
<title>C</title>
<polygon fill="aqua" stroke="black" points="176.35,-203.74 137.05,-203.74 124.9,-241.12 112.76,-203.74 73.46,-203.74 105.25,-180.64 93.11,-143.26 124.9,-166.36 156.7,-143.26 144.55,-180.64 176.35,-203.74"/>
<text text-anchor="middle" x="124.9" y="-188.49" font-family="Times,serif" font-size="14.00">C</text>
</g>
<!-- B&#45;&#45;C -->
<g id="edge4" class="edge">
<title>B&#45;&#45;C</title>
<path fill="none" stroke="red" d="M99.48,-141.83C101.03,-144.89 102.68,-148.16 104.36,-151.5"/>
<text text-anchor="middle" x="95.42" y="-152.66" font-family="Times,serif" font-size="20.00">2</text>
</g>
<!-- A -->
<g id="node6" class="node">
<title>A</title>
<polygon fill="aqua" stroke="black" points="102.67,-198.75 63.37,-198.75 51.22,-236.13 39.08,-198.75 -0.22,-198.75 31.57,-175.65 19.43,-138.27 51.22,-161.37 83.02,-138.27 70.87,-175.65 102.67,-198.75"/>
<text text-anchor="middle" x="51.22" y="-183.5" font-family="Times,serif" font-size="14.00">A</text>
</g>
<!-- B&#45;&#45;A -->
<g id="edge5" class="edge">
<title>B&#45;&#45;A</title>
<path fill="none" stroke="red" d="M79.36,-139.75C79.01,-140.35 78.65,-140.96 78.28,-141.58"/>
<text text-anchor="middle" x="72.32" y="-124.66" font-family="Times,serif" font-size="20.00">1</text>
</g>
<!-- G&#45;&#45;D -->
<g id="edge14" class="edge">
<title>G&#45;&#45;D</title>
<path fill="none" stroke="red" d="M151.58,-93.66C152.27,-96.28 152.98,-98.96 153.69,-101.63"/>
<text text-anchor="middle" x="159.13" y="-81.65" font-family="Times,serif" font-size="20.00">1</text>
</g>
<!-- H&#45;&#45;G -->
<g id="edge6" class="edge">
<title>H&#45;&#45;G</title>
<path fill="none" stroke="red" d="M118.67,-60.25C118.78,-60.28 118.89,-60.31 119,-60.34"/>
<text text-anchor="middle" x="105.84" y="-44.29" font-family="Times,serif" font-size="20.00">14</text>
</g>
<!-- C&#45;&#45;D -->
<g id="edge8" class="edge">
<title>C&#45;&#45;D</title>
<path fill="none" stroke="red" d="M155.72,-143.99C155.78,-143.9 155.84,-143.81 155.9,-143.71"/>
<text text-anchor="middle" x="149.31" y="-127.85" font-family="Times,serif" font-size="20.00">1</text>
</g>
<!-- E -->
<g id="node7" class="node">
<title>E</title>
<polygon fill="aqua" stroke="black" points="257.56,-194.52 218.26,-194.52 206.11,-231.89 193.97,-194.52 154.67,-194.52 186.46,-171.41 174.32,-134.03 206.11,-157.14 237.91,-134.03 225.76,-171.41 257.56,-194.52"/>
<text text-anchor="middle" x="206.11" y="-179.26" font-family="Times,serif" font-size="14.00">E</text>
</g>
<!-- C&#45;&#45;E -->
<g id="edge9" class="edge">
<title>C&#45;&#45;E</title>
<path fill="none" stroke="red" d="M155.6,-188.7C158.39,-188.39 161.24,-188.06 164.1,-187.74"/>
<text text-anchor="middle" x="153.35" y="-194.22" font-family="Times,serif" font-size="20.00">3</text>
</g>
<!-- A&#45;&#45;C -->
<g id="edge7" class="edge">
<title>A&#45;&#45;C</title>
<path fill="none" stroke="red" d="M90.65,-189.87C91.2,-189.91 91.74,-189.94 92.29,-189.98"/>
<text text-anchor="middle" x="84.97" y="-195.93" font-family="Times,serif" font-size="20.00">4</text>
</g>
<!-- E&#45;&#45;D -->
<g id="edge10" class="edge">
<title>E&#45;&#45;D</title>
<path fill="none" stroke="red" d="M181.09,-154.95C178.62,-152.19 176.21,-149.49 173.98,-147"/>
<text text-anchor="middle" x="184.03" y="-156.97" font-family="Times,serif" font-size="20.00">1</text>
</g>
<!-- F -->
<g id="node8" class="node">
<title>F</title>
<polygon fill="aqua" stroke="black" points="270.35,-111.39 231.05,-111.39 218.9,-148.77 206.76,-111.39 167.46,-111.39 199.25,-88.29 187.11,-50.91 218.9,-74.01 250.7,-50.91 238.55,-88.29 270.35,-111.39"/>
<text text-anchor="middle" x="218.9" y="-96.14" font-family="Times,serif" font-size="14.00">F</text>
</g>
<!-- E&#45;&#45;F -->
<g id="edge11" class="edge">
<title>E&#45;&#45;F</title>
<path fill="none" stroke="red" d="M210.59,-153.89C211.62,-147.15 212.74,-139.92 213.8,-133.02"/>
<text text-anchor="middle" x="218.69" y="-127.46" font-family="Times,serif" font-size="20.00">1</text>
</g>
<!-- F&#45;&#45;G -->
<g id="edge13" class="edge">
<title>F&#45;&#45;G</title>
<path fill="none" stroke="red" d="M196.57,-89.92C188.34,-86.26 178.96,-82.1 170.44,-78.31"/>
<text text-anchor="middle" x="177" y="-68.11" font-family="Times,serif" font-size="20.00">6</text>
</g>
<!-- F&#45;&#45;D -->
<g id="edge12" class="edge">
<title>F&#45;&#45;D</title>
<path fill="none" stroke="red" d="M199.71,-111.34C194.06,-114.73 187.86,-118.45 182.16,-121.87"/>
<text text-anchor="middle" x="184.44" y="-122.61" font-family="Times,serif" font-size="20.00">3</text>
</g>
</g>
</svg>
