<?xml version="1.0" encoding="UTF-8" standalone="no"?>
<!DOCTYPE svg PUBLIC "-//W3C//DTD SVG 1.1//EN"
 "http://www.w3.org/Graphics/SVG/1.1/DTD/svg11.dtd">
<!-- Generated by graphviz version 2.43.0 (0)
 -->
<!-- Title: %3 Pages: 1 -->
<svg width="822pt" height="625pt"
 viewBox="0.00 0.00 822.00 625.00" xmlns="http://www.w3.org/2000/svg" xmlns:xlink="http://www.w3.org/1999/xlink">
<g id="graph0" class="graph" transform="scale(1 1) rotate(0) translate(4 621)">
<title>%3</title>
<polygon fill="white" stroke="transparent" points="-4,4 -4,-621 818,-621 818,4 -4,4"/>
<!-- A -->
<g id="node1" class="node">
<title>A</title>
<image xlink:href="icon_router.png" width="166px" height="113px" preserveAspectRatio="xMinYMin meet" x="648" y="-401"/>
<text text-anchor="middle" x="731" y="-337" font-family="Times,serif" font-size="30.00" fill="red">A</text>
</g>
<!-- C -->
<g id="node3" class="node">
<title>C</title>
<image xlink:href="icon_router.png" width="166px" height="113px" preserveAspectRatio="xMinYMin meet" x="432" y="-329"/>
<text text-anchor="middle" x="515" y="-265" font-family="Times,serif" font-size="30.00" fill="red">C</text>
</g>
<!-- A&#45;&#45;C -->
<g id="edge7" class="edge">
<title>A&#45;&#45;C</title>
<path fill="none" stroke="black" d="M647.8,-316.77C631.52,-311.34 614.44,-305.65 598.16,-300.22"/>
<text text-anchor="middle" x="613.48" y="-317.49" font-family="Times,serif" font-size="30.00" fill="blue">4</text>
</g>
<!-- B -->
<g id="node2" class="node">
<title>B</title>
<image xlink:href="icon_router.png" width="166px" height="113px" preserveAspectRatio="xMinYMin meet" x="432" y="-617"/>
<text text-anchor="middle" x="515" y="-553" font-family="Times,serif" font-size="30.00" fill="red">B</text>
</g>
<!-- B&#45;&#45;A -->
<g id="edge5" class="edge">
<title>B&#45;&#45;A</title>
<path fill="none" stroke="black" d="M571.75,-503.75C603.38,-472.12 642.63,-432.87 674.25,-401.25"/>
<text text-anchor="middle" x="613.5" y="-461.5" font-family="Times,serif" font-size="30.00" fill="blue">1</text>
</g>
<!-- B&#45;&#45;C -->
<g id="edge4" class="edge">
<title>B&#45;&#45;C</title>
<path fill="none" stroke="black" d="M515,-503.94C515,-453.49 515,-379.98 515,-329.42"/>
<text text-anchor="middle" x="505.5" y="-425.68" font-family="Times,serif" font-size="30.00" fill="blue">2</text>
</g>
<!-- D -->
<g id="node4" class="node">
<title>D</title>
<image xlink:href="icon_router.png" width="166px" height="113px" preserveAspectRatio="xMinYMin meet" x="216" y="-329"/>
<text text-anchor="middle" x="299" y="-265" font-family="Times,serif" font-size="30.00" fill="red">D</text>
</g>
<!-- B&#45;&#45;D -->
<g id="edge3" class="edge">
<title>B&#45;&#45;D</title>
<path fill="none" stroke="black" d="M472.58,-503.94C434.74,-453.49 379.61,-379.98 341.69,-329.42"/>
<text text-anchor="middle" x="397.64" y="-425.68" font-family="Times,serif" font-size="30.00" fill="blue">9</text>
</g>
<!-- G -->
<g id="node7" class="node">
<title>G</title>
<image xlink:href="icon_router.png" width="166px" height="113px" preserveAspectRatio="xMinYMin meet" x="72" y="-473"/>
<text text-anchor="middle" x="155" y="-409" font-family="Times,serif" font-size="30.00" fill="red">G</text>
</g>
<!-- B&#45;&#45;G -->
<g id="edge1" class="edge">
<title>B&#45;&#45;G</title>
<path fill="none" stroke="black" d="M431.96,-527.28C373.81,-504.03 296.44,-473.07 238.25,-449.8"/>
<text text-anchor="middle" x="325.6" y="-464.54" font-family="Times,serif" font-size="30.00" fill="blue">4</text>
</g>
<!-- H -->
<g id="node8" class="node">
<title>H</title>
<image xlink:href="icon_router.png" width="166px" height="113px" preserveAspectRatio="xMinYMin meet" x="216" y="-617"/>
<text text-anchor="middle" x="299" y="-553" font-family="Times,serif" font-size="30.00" fill="red">H</text>
</g>
<!-- B&#45;&#45;H -->
<g id="edge2" class="edge">
<title>B&#45;&#45;H</title>
<path fill="none" stroke="black" d="M431.8,-560.5C415.52,-560.5 398.44,-560.5 382.16,-560.5"/>
<text text-anchor="middle" x="397.48" y="-569.5" font-family="Times,serif" font-size="30.00" fill="blue">2</text>
</g>
<!-- C&#45;&#45;D -->
<g id="edge8" class="edge">
<title>C&#45;&#45;D</title>
<path fill="none" stroke="black" d="M431.8,-272.5C415.52,-272.5 398.44,-272.5 382.16,-272.5"/>
<text text-anchor="middle" x="397.48" y="-281.5" font-family="Times,serif" font-size="30.00" fill="blue">1</text>
</g>
<!-- E -->
<g id="node5" class="node">
<title>E</title>
<image xlink:href="icon_router.png" width="166px" height="113px" preserveAspectRatio="xMinYMin meet" x="288" y="-113"/>
<text text-anchor="middle" x="371" y="-49" font-family="Times,serif" font-size="30.00" fill="red">E</text>
</g>
<!-- C&#45;&#45;E -->
<g id="edge9" class="edge">
<title>C&#45;&#45;E</title>
<path fill="none" stroke="black" d="M477.17,-215.75C456.08,-184.12 429.91,-144.87 408.83,-113.25"/>
<text text-anchor="middle" x="433.5" y="-173.5" font-family="Times,serif" font-size="30.00" fill="blue">3</text>
</g>
<!-- E&#45;&#45;D -->
<g id="edge10" class="edge">
<title>E&#45;&#45;D</title>
<path fill="none" stroke="black" d="M352.08,-113.25C341.54,-144.88 328.46,-184.13 317.92,-215.75"/>
<text text-anchor="middle" x="325.5" y="-173.5" font-family="Times,serif" font-size="30.00" fill="blue">1</text>
</g>
<!-- F -->
<g id="node6" class="node">
<title>F</title>
<image xlink:href="icon_router.png" width="166px" height="113px" preserveAspectRatio="xMinYMin meet" x="0" y="-185"/>
<text text-anchor="middle" x="83" y="-121" font-family="Times,serif" font-size="30.00" fill="red">F</text>
</g>
<!-- E&#45;&#45;F -->
<g id="edge11" class="edge">
<title>E&#45;&#45;F</title>
<path fill="none" stroke="black" d="M287.7,-77.33C249.49,-86.88 204.3,-98.17 166.11,-107.72"/>
<text text-anchor="middle" x="217.41" y="-101.52" font-family="Times,serif" font-size="30.00" fill="blue">1</text>
</g>
<!-- F&#45;&#45;D -->
<g id="edge12" class="edge">
<title>F&#45;&#45;D</title>
<path fill="none" stroke="black" d="M166.2,-183.97C182.48,-194.82 199.56,-206.21 215.84,-217.06"/>
<text text-anchor="middle" x="181.52" y="-209.51" font-family="Times,serif" font-size="30.00" fill="blue">3</text>
</g>
<!-- F&#45;&#45;G -->
<g id="edge13" class="edge">
<title>F&#45;&#45;G</title>
<path fill="none" stroke="black" d="M97.14,-185.06C109.75,-235.51 128.13,-309.02 140.77,-359.58"/>
<text text-anchor="middle" x="109.45" y="-281.32" font-family="Times,serif" font-size="30.00" fill="blue">6</text>
</g>
<!-- G&#45;&#45;D -->
<g id="edge14" class="edge">
<title>G&#45;&#45;D</title>
<path fill="none" stroke="black" d="M211.91,-359.59C221.82,-349.68 232.12,-339.38 242.03,-329.47"/>
<text text-anchor="middle" x="217.47" y="-320.53" font-family="Times,serif" font-size="30.00" fill="blue">1</text>
</g>
<!-- H&#45;&#45;G -->
<g id="edge6" class="edge">
<title>H&#45;&#45;G</title>
<path fill="none" stroke="black" d="M242.09,-503.59C232.18,-493.68 221.88,-483.38 211.97,-473.47"/>
<text text-anchor="middle" x="208.03" y="-497.53" font-family="Times,serif" font-size="30.00" fill="blue">14</text>
</g>
</g>
</svg>
